<svg width="20" height="22" viewBox="0 0 20 22" fill="none" xmlns="http://www.w3.org/2000/svg">
<path d="M4.09091 13.9964C5.79798 13.9964 7.18182 12.7108 7.18182 11.1249C7.18182 9.53898 5.79798 8.25336 4.09091 8.25336C2.38385 8.25336 1 9.53898 1 11.1249C1 12.7108 2.38385 13.9964 4.09091 13.9964Z" stroke="#C4C4C4" stroke-width="2" stroke-linecap="round" stroke-linejoin="round"/>
<path d="M14.9112 20.4574C16.6183 20.4574 18.0021 19.1718 18.0021 17.5859C18.0021 16 16.6183 14.7144 14.9112 14.7144C13.2042 14.7144 11.8203 16 11.8203 17.5859C11.8203 19.1718 13.2042 20.4574 14.9112 20.4574Z" stroke="#C4C4C4" stroke-width="2" stroke-linecap="round" stroke-linejoin="round"/>
<path d="M14.9112 7.5354C16.6183 7.5354 18.0021 6.24976 18.0021 4.66385C18.0021 3.07793 16.6183 1.7923 14.9112 1.7923C13.2042 1.7923 11.8203 3.07793 11.8203 4.66385C11.8203 6.24976 13.2042 7.5354 14.9112 7.5354Z" stroke="#C4C4C4" stroke-width="2" stroke-linecap="round" stroke-linejoin="round"/>
<path d="M12.3102 6.21667L6.69141 9.57239" stroke="#C4C4C4" stroke-width="2" stroke-linecap="round" stroke-linejoin="round"/>
<path d="M6.69141 12.6777L12.3102 16.0334" stroke="#C4C4C4" stroke-width="2" stroke-linecap="round" stroke-linejoin="round"/>
</svg>
