<svg width="24" height="24" viewBox="0 0 24 24" fill="none" xmlns="http://www.w3.org/2000/svg">
<g clip-path="url(#clip0)">
<path d="M21.3628 14.3766L21.3498 14.3645C21.1449 14.175 20.5172 13.5629 20.3055 13.2954C20.057 12.9617 20.1144 12.743 20.3006 12.4154C20.5359 12.0013 21.0074 11.3661 21.5063 10.6936C23.1045 8.54006 24.1363 7.04923 23.9239 5.99028L23.8094 5.42466L17.9074 5.42723C17.8867 5.483 17.5787 6.83862 16.279 9.14696C15.3366 10.8207 14.7184 11.3465 14.5007 11.4393L14.467 11.4291C14.3961 11.3414 14.2724 11.1047 14.2215 10.4947C14.1684 9.85568 14.2154 9.08201 14.261 8.33385C14.3143 7.45652 14.3603 6.69882 14.2502 6.15668L14.071 5.27349C13.8543 5.23881 13.0613 4.93225 10.8518 4.90895C8.93886 4.88932 8.37691 5.16616 8.10097 5.41017L7.18819 6.21723L8.34194 6.60617C8.78102 6.75423 8.92678 6.92503 9.04634 7.77172C9.12435 8.32357 9.16518 9.25098 9.08095 10.079C8.95992 11.2662 8.66969 11.487 8.65468 11.4988C8.60469 11.4817 8.1808 11.2959 7.4449 9.73698C6.9344 8.65583 6.48689 7.3769 6.15986 6.44307C5.78559 5.37366 5.85298 5.60134 5.6631 5.09608L-0.046875 5.0959L0.322633 6.05358C1.8631 10.05 3.2765 13.1709 5.16798 15.4124C7.25777 17.889 9.85494 19.1857 13.3534 19.1857H14.0565V18.4812C14.0565 17.8226 14.1109 17.3483 14.2275 16.9888C14.2987 16.7697 14.3934 16.5886 14.4928 16.3987C14.6404 16.1191 14.7847 15.9993 14.8634 15.9815C14.9348 15.9652 15.0605 16.0177 15.1996 16.1217C15.5992 16.4202 15.9163 16.8124 16.2521 17.2278C16.7366 17.8272 17.2376 18.4467 18.0324 18.8524C18.4668 19.074 19.2629 19.1859 19.7011 19.1859C19.817 19.1859 23.948 19.1857 23.9532 19.1857L23.923 18.4522C23.8779 17.3555 23.0164 15.9841 21.3628 14.3766ZM19.7284 17.7767H19.717C19.4149 17.7817 18.8383 17.6824 18.6706 17.5969C18.1421 17.3272 17.7728 16.8702 17.3449 16.3411C16.9693 15.8764 16.581 15.3959 16.0403 14.9921C15.603 14.6654 15.2058 14.5698 14.8905 14.5698C14.7646 14.5698 14.6514 14.585 14.5543 14.607C14.1883 14.6896 13.6648 14.9534 13.2486 15.7421C13.1313 15.9665 12.9981 16.2206 12.8903 16.553C12.7773 16.9009 12.707 17.2874 12.6735 17.7577C10.0371 17.6076 7.97994 16.5626 6.24189 14.5028C4.62599 12.5876 3.35468 9.90889 2.0083 6.50435C2.10572 6.50435 4.5467 6.50471 4.69081 6.50471C4.73493 6.62892 4.78254 6.76505 4.83308 6.90925C5.18556 7.91665 5.66841 9.29612 6.23732 10.4725C7.05196 12.1571 7.79591 12.9083 8.64937 12.9083C9.07546 12.9083 9.4576 12.7274 9.75441 12.3849C10.1776 11.8967 10.4233 11.0909 10.5057 9.92136C10.5707 8.99909 10.5103 8.08049 10.4389 7.57431C10.3799 7.15785 10.2959 6.72065 10.0908 6.32896C10.9647 6.28951 12.135 6.35189 12.8764 6.45848C12.9438 6.82614 12.8998 7.54881 12.8573 8.24799C12.7546 9.93696 12.6486 11.6799 13.5409 12.4954C13.6978 12.6388 13.8642 12.7157 13.869 12.7188L14.3231 12.8584C14.4983 12.8043 15.5133 13.3202 17.4352 9.9597C18.0509 8.88296 18.6242 7.64219 18.933 6.83183C19.6489 6.83036 22.0881 6.83311 22.3746 6.83348C21.9687 7.7286 21.0066 9.00533 20.3778 9.85275C19.8296 10.5914 19.3563 11.2293 19.0785 11.718C18.5625 12.626 18.6493 13.4352 19.1867 14.1491L19.1952 14.1601C19.4951 14.5426 20.2358 15.2508 20.3894 15.3935C21.5023 16.4762 22.0386 17.2539 22.2939 17.7765H19.7284V17.7767Z" fill="#525252"/>
</g>
<defs>
<clipPath id="clip0">
<rect width="24" height="24" fill="white"/>
</clipPath>
</defs>
</svg>
